squats_1_grf
version=1
nRows=27
nColumns=19
inDegrees=no
endheader
time	ground_force_right_vx	ground_force_right_vy	ground_force_right_vz	ground_force_right_px	ground_force_right_py	ground_force_right_pz	ground_force_right_mx	ground_force_right_my	ground_force_right_mz	ground_force_left_vx	ground_force_left_vy	ground_force_left_vz	ground_force_left_px	ground_force_left_py	ground_force_left_pz	ground_force_left_mx	ground_force_left_my	ground_force_left_mz
     31.46500000	     -7.12321171	    437.27248533	     56.66120673	     -3.45095485	      0.00742785	      2.28527752	     -0.00236428	      0.81112316	      0.00367256	      7.65238130	    528.72449557	    -73.93487742	     -3.45039800	      0.00813842	      2.74168140	      0.01355002	     -4.07825223	      0.00708180
     31.46600000	     -7.21591002	    436.85780798	     56.63395327	     -3.45083946	      0.00742824	      2.28526536	     -0.00230363	      0.79031560	      0.00357835	      7.71946317	    528.15530125	    -73.96232586	     -3.45034913	      0.00813860	      2.74169282	      0.01345886	     -4.05081647	      0.00703415
     31.46700000	     -7.31284822	    436.44347718	     56.60445351	     -3.45072391	      0.00742863	      2.28525308	     -0.00224414	      0.76990615	      0.00348594	      7.78175758	    527.57817634	    -73.98675401	     -3.45029970	      0.00813879	      2.74170458	      0.01336864	     -4.02366054	      0.00698700
     31.46800000	     -7.41395064	    436.02931683	     56.57290343	     -3.45060837	      0.00742902	      2.28524064	     -0.00218581	      0.74989564	      0.00339534	      7.83848086	    526.99457305	    -74.00816954	     -3.45024951	      0.00813897	      2.74171660	      0.01327940	     -3.99680350	      0.00694036
     31.46900000	     -7.51908086	    435.61512054	     56.53952469	     -3.45049299	      0.00742942	      2.28522800	     -0.00212865	      0.73028397	      0.00330654	      7.88889395	    526.40592442	    -74.02658093	     -3.45019836	      0.00813916	      2.74172879	      0.01319122	     -3.97026388	      0.00689428
     31.47000000	     -7.62804116	    435.20065682	     56.50456139	     -3.45037795	      0.00742981	      2.28521511	     -0.00207264	      0.71107022	      0.00321955	      7.93231016	    525.81362875	    -74.04199590	     -3.45014606	      0.00813936	      2.74174105	      0.01310416	     -3.94405949	      0.00684877
     31.47100000	     -7.74057275	    434.78567445	     56.46827630	     -3.45026343	      0.00743021	      2.28520193	     -0.00201779	      0.69225266	      0.00313435	      7.96810236	    525.21903435	    -74.05441978	     -3.45009243	      0.00813956	      2.74175328	      0.01301827	     -3.91820722	      0.00680388
     31.47200000	     -7.85635693	    434.36990790	     56.43094702	     -3.45014961	      0.00743060	      2.28518841	     -0.00196409	      0.67382888	      0.00305093	      7.99570946	    524.62342484	    -74.06385404	     -3.45003730	      0.00813976	      2.74176540	      0.01293359	     -3.89272287	      0.00675963
     31.47300000	     -7.97501721	    433.95308273	     56.39286171	     -3.45003669	      0.00743099	      2.28517449	     -0.00191153	      0.65579583	      0.00296928	      8.01464209	    524.02800530	    -74.07029491	     -3.44998051	      0.00813997	      2.74177729	      0.01285019	     -3.86762093	      0.00671604
     31.47400000	     -8.09612233	    433.53492093	     56.35431490	     -3.44992485	      0.00743138	      2.28516014	     -0.00186009	      0.63814994	      0.00288938	      8.02448753	    523.43388935	    -74.07373213	     -3.44992194	      0.00814019	      2.74178887	      0.01276811	     -3.84291450	      0.00667314
     31.47500000	     -8.21919013	    433.11514622	     56.31560309	     -3.44981428	      0.00743177	      2.28514531	     -0.00180977	      0.62088718	      0.00281122	      8.02491365	    522.84208745	    -74.07414793	     -3.44986146	      0.00814041	      2.74180003	      0.01268737	     -3.81861511	      0.00663094
     31.47600000	     -8.34369231	    432.69348916	     56.27702052	     -3.44970516	      0.00743216	      2.28512994	     -0.00176056	      0.60400314	      0.00273478	      8.01567191	    522.25349650	    -74.07151613	     -3.44979897	      0.00814063	      2.74181070	      0.01260802	     -3.79473265	      0.00658947
     31.47700000	     -8.46905997	    432.26969218	     56.23885495	     -3.44959767	      0.00743254	      2.28511401	     -0.00171244	      0.58749309	      0.00266002	      7.99659941	    521.66889086	    -74.06580146	     -3.44973440	      0.00814087	      2.74182078	      0.01253008	     -3.77127531	      0.00654874
     31.47800000	     -8.59468978	    431.84351438	     56.20138368	     -3.44949197	      0.00743293	      2.28509745	     -0.00166539	      0.57135210	      0.00258694	      7.96762001	    521.08891493	    -74.05695909	     -3.44966768	      0.00814110	      2.74183018	      0.01245358	     -3.74824950	      0.00650875
     31.47900000	     -8.71995075	    431.41473612	     56.16486978	     -3.44938824	      0.00743331	      2.28508024	     -0.00161940	      0.55557504	      0.00251551	      7.92874435	    520.51407727	    -74.04493440	     -3.44959877	      0.00814135	      2.74183884	      0.01237853	     -3.72565982	      0.00646953
     31.48000000	     -8.84419150	    430.98316330	     56.12955869	     -3.44928661	      0.00743368	      2.28506233	     -0.00157446	      0.54015668	      0.00244569	      7.88006907	    519.94474640	    -74.02966291	     -3.44952768	      0.00814160	      2.74184668	      0.01230493	     -3.70350906	      0.00643106
     31.48100000	     -8.96674788	    430.54863127	     56.09567510	     -3.44918722	      0.00743406	      2.28504369	     -0.00153055	      0.52509166	      0.00237748	      7.82177497	    519.38114821	    -74.01107056	     -3.44945440	      0.00814185	      2.74185363	      0.01223280	     -3.68179822	      0.00639336
     31.48200000	     -9.08695079	    430.11100832	     56.06342030	     -3.44909019	      0.00743443	      2.28502429	     -0.00148765	      0.51037458	      0.00231085	      7.75412440	    518.82336524	    -73.98907416	     -3.44937895	      0.00814211	      2.74185964	      0.01216212	     -3.66052648	      0.00635642
     31.48300000	     -9.20413417	    429.67019868	     56.03296994	     -3.44899564	      0.00743480	      2.28500409	     -0.00144575	      0.49599995	      0.00224576	      7.67745776	    518.27133752	    -73.96358216	     -3.44930140	      0.00814238	      2.74186466	      0.01209290	     -3.63969123	      0.00632024
     31.48400000	     -9.31764295	    429.22614500	     56.00447230	     -3.44890366	      0.00743516	      2.28498307	     -0.00140483	      0.48196219	      0.00218220	      7.59218921	    517.72486528	    -73.93449565	     -3.44922181	      0.00814265	      2.74186864	      0.01202511	     -3.61928813	      0.00628481
     31.48500000	     -9.42684089	    428.77883023	     55.97804694	     -3.44881434	      0.00743552	      2.28496121	     -0.00136488	      0.46825556	      0.00212014	      7.49880160	    517.18361326	    -73.90170963	     -3.44914028	      0.00814293	      2.74187155	      0.01195873	     -3.59931109	      0.00625012
     31.48600000	     -9.53111817	    428.32827886	     55.95378389	     -3.44872775	      0.00743587	      2.28493850	     -0.00132588	      0.45487416	      0.00205956	      7.39784084	    516.64711668	    -73.86511463	     -3.44905690	      0.00814321	      2.74187336	      0.01189375	     -3.57975234	      0.00621616
     31.48700000	     -9.62989866	    427.87455753	     55.93174327	     -3.44864394	      0.00743623	      2.28491491	     -0.00128780	      0.44181185	      0.00200041	      7.28990957	    516.11478872	    -73.82459850	     -3.44897181	      0.00814349	      2.74187406	      0.01183012	     -3.56060246	      0.00618291
     31.48800000	     -9.72264666	    427.41777485	     55.91195540	     -3.44856296	      0.00743657	      2.28489044	     -0.00125064	      0.42906215	      0.00194269	      7.17566031	    515.58592950	    -73.78004856	     -3.44888515	      0.00814378	      2.74187363	      0.01176782	     -3.54185048	      0.00615035
     31.48900000	     -9.80887305	    426.95808043	     55.89442133	     -3.44848484	      0.00743691	      2.28486509	     -0.00121437	      0.41661828	      0.00188634	      7.05578829	    515.05973642	    -73.73135399	     -3.44879708	      0.00814407	      2.74187208	      0.01170680	     -3.52348394	      0.00611845
     31.49000000	     -9.88814082	    426.49566318	     55.87911380	     -3.44840960	      0.00743725	      2.28483885	     -0.00117897	      0.40447300	      0.00183135	      6.93102389	    514.53531581	    -73.67840847	     -3.44870776	      0.00814436	      2.74186941	      0.01164701	     -3.50548900	      0.00608720
     31.49100000	     -9.96006975	    426.03074880	     55.86597862	     -3.44833725	      0.00743759	      2.28481173	     -0.00114441	      0.39261866	      0.00177768	      6.80212486	    514.01169566	    -73.62111305	     -3.44861738	      0.00814466	      2.74186564	      0.01158840	     -3.48785054	      0.00605658
